<svg xmlns="http://www.w3.org/2000/svg" width="629" height="131" fill="none" class="H2 active"><path fill="#FC862B" d="M294 111h330v8H294z" class="svg-elem-1"/><path fill="#fff" d="M294 111h124v8H294z" class="svg-elem-2"/><path fill="#fff" d="M240 111h8v8h-8z" class="svg-elem-3"/><path fill="#FC862B" d="M256 111h8v8h-8z" class="svg-elem-4"/><path fill="#fff" d="M272 111h8v8h-8z" class="svg-elem-5"/><path fill="#fff" stroke="#fff" d="M17.578 63.422h39.55V81H0V19.477h17.578v43.945Zm85.686-4.395-3.779-8.525-3.78 8.525h7.559Zm7.823 17.579H87.884L85.906 81H66.614L99.485 7.172 132.356 81h-19.292l-1.977-4.394Zm26.096-21.973V19.477h17.578v35.156c0 5.86 2.93 8.789 8.789 8.789h8.789c5.86 0 8.79-2.93 8.79-8.79V19.478h17.578v35.156c0 17.578-8.789 26.367-26.368 26.367h-8.789c-17.578 0-26.367-8.79-26.367-26.367Zm90.784-3.252V81h-17.578V16.532l43.945 32.564v-29.62h17.579v64.468l-43.946-32.563Zm90.696 12.04c5.86 0 8.789-2.929 8.789-8.788h17.578C345.03 72.21 336.241 81 318.663 81h-8.789c-17.578 0-26.367-8.79-26.367-26.367v-8.79c0-17.577 8.789-26.366 26.367-26.366h8.789c17.578 0 26.367 8.789 26.367 26.367h-17.578c0-5.86-2.929-8.79-8.789-8.79h-8.789c-5.859 0-8.789 2.93-8.789 8.79v8.789c0 5.86 2.93 8.789 8.789 8.789h8.789Zm55.628-4.394V81h-17.578V19.477h17.578v21.972h26.367V19.477h17.578V81h-17.578V59.027h-26.367Zm97.288-17.578c1.465 0 2.197-.732 2.197-2.197s-.732-2.197-2.197-2.197h-24.17v4.394h24.17Zm19.775-2.197c0 13.183-6.591 19.775-19.775 19.775h-24.17V81h-17.578V19.477h41.748c13.184 0 19.775 6.591 19.775 19.775Zm33.04 19.775-3.779-8.525-3.779 8.525h7.558Zm7.822 17.579h-23.203L507.036 81h-19.292l32.871-73.828L553.486 81h-19.292l-1.978-4.394Zm92.279-21.973c0 17.578-8.79 26.367-26.368 26.367h-35.156V19.477h35.156c17.578 0 26.368 8.789 26.368 26.367v8.789Zm-26.368 8.789c5.86 0 8.789-2.93 8.789-8.79v-8.788c0-5.86-2.929-8.79-8.789-8.79h-17.578v26.368h17.578Z" class="svg-elem-6"/><path fill="#FC862B" stroke="#FC862B" d="M6.075 112.64H7.08c.38 0 .69-.05.93-.15.24-.11.455-.28.645-.51l6.54-7.8c.23-.29.465-.49.705-.6.25-.12.56-.18.93-.18h3l-7.725 9.12c-.21.26-.415.48-.615.66-.19.17-.4.31-.63.42.3.11.57.265.81.465.24.19.475.445.705.765l8.01 10.17h-3.06c-.22 0-.41-.015-.57-.045a1.606 1.606 0 0 1-.405-.135c-.11-.06-.21-.135-.3-.225-.08-.09-.155-.19-.225-.3l-6.75-8.25c-.1-.13-.2-.24-.3-.33-.1-.09-.22-.165-.36-.225-.13-.06-.28-.1-.45-.12-.17-.03-.37-.045-.6-.045h-1.29V125h-3.51v-21.6h3.51v9.24Zm51.67 9.525L57.728 125H44.26v-21.6h13.47v2.835h-9.945v6.51h7.95v2.745h-7.95v6.675h9.96Zm31.52-8.415c.8 0 1.5-.095 2.1-.285.6-.2 1.1-.475 1.5-.825.4-.35.7-.765.9-1.245.2-.49.3-1.03.3-1.62 0-1.18-.39-2.08-1.17-2.7-.78-.62-1.96-.93-3.54-.93h-2.85v7.605h2.76ZM99.434 125h-3.136c-.62 0-1.07-.24-1.35-.72l-5.04-7.275c-.17-.25-.355-.43-.555-.54-.2-.11-.5-.165-.9-.165h-1.95v8.7h-3.51v-21.6h6.36c1.42 0 2.64.145 3.66.435 1.03.29 1.875.705 2.535 1.245.66.53 1.145 1.17 1.455 1.92.32.75.48 1.585.48 2.505 0 .75-.115 1.45-.345 2.1-.22.65-.545 1.24-.975 1.77-.42.53-.94.99-1.56 1.38-.62.39-1.325.695-2.115.915.43.26.8.625 1.11 1.095L99.434 125Zm35.482-8.1-2.97-7.89c-.24-.61-.485-1.385-.735-2.325-.11.47-.23.905-.36 1.305-.13.39-.25.735-.36 1.035l-2.97 7.875h7.395Zm6.645 8.1h-2.715c-.31 0-.56-.075-.75-.225a1.575 1.575 0 0 1-.435-.585l-1.8-4.77h-9.3l-1.8 4.77c-.08.2-.22.385-.42.555-.2.17-.45.255-.75.255h-2.715l8.565-21.6h3.555l8.565 21.6Zm36.451-2.94V125h-12.48v-21.6h3.51v18.66h8.97Zm35.898-5.16-2.97-7.89c-.24-.61-.485-1.385-.735-2.325-.11.47-.23.905-.36 1.305-.13.39-.25.735-.36 1.035l-2.97 7.875h7.395Zm6.645 8.1h-2.715c-.31 0-.56-.075-.75-.225a1.575 1.575 0 0 1-.435-.585l-1.8-4.77h-9.3l-1.8 4.77c-.08.2-.22.385-.42.555-.2.17-.45.255-.75.255h-2.715l8.565-21.6h3.555l8.565 21.6Z" class="svg-elem-7"/></svg>